# xmcd CD database file
#
# Track frame offsets:
#	150
#	20297
#	38788
#	54130
#	79767
#	92882
#	116095
#	133601
#	155607
#	171036
#
# Disc length: 2607 seconds
#
# Revision: 2
# Processed by: cddbd v1.5.2PL0 Copyright (c) Steve Scherf et al.
# Submitted via: CDex 1.72
#
DISCID=750a2d0a
DTITLE=Muth, Zoe (USA-14-World Of Stangers-cty) - World Of Strangers
DYEAR=2014
DGENRE=Country
TTITLE0=Little Piece Of History
TTITLE1=Mama Needs A Margarita
TTITLE2=Make Me Change My Mind
TTITLE3=Annabelle
TTITLE4=April Fool
TTITLE5=Somebody I Know
TTITLE6=Too Shiny
TTITLE7=Waltz Of The Wayward Wind
TTITLE8=Taken All You Wanted
TTITLE9=What Did You Come Back Here For?
EXTD=YEAR: 2014
EXTT0=
EXTT1=
EXTT2=
EXTT3=
EXTT4=
EXTT5=
EXTT6=
EXTT7=
EXTT8=
EXTT9=
PLAYORDER=
